# xmcd
#
# Track frame offsets: 
#        150
#        12202
#        23775
#        42367
#        52990
#        61687
#        76042
#        90977
#        103537
#        114597
#        130910
#        141932
#        157442
#        167895
#        178637
#        196162
#        207992
#        219382
#        233980
#        244785
#        254820
#        274047
#        287925
#        301200
#
# Disc length: 4253 seconds
#
# Revision: 1
# Processed by: cddbd v1.5.2PL0 Copyright (c) Steve Scherf et al.
# Submitted via: ExactAudioCopy v0.99pb5
#
DISCID=54109b18
DTITLE=Sarah Vaughan - Sarah Vaughan Special
DYEAR=1990
DGENRE=Jazz
TTITLE0=After You've Gone
TTITLE1=Wrap Your Troubles in Dreams
TTITLE2=In a Sentimental Mood
TTITLE3=Just in Time
TTITLE4=I Got Rhythm
TTITLE5=I Can't Give You Anything but Love
TTITLE6=Honeysuckle Rose
TTITLE7=My Favorite Things
TTITLE8=Jump For Joy
TTITLE9=Baubles, Bangles and Beads
TTITLE10=Ev'ry Time We Say Goodbye
TTITLE11=Gloomy Sunday
TTITLE12=When Your Lover Has Gone
TTITLE13=Have You Met Miss Jones?
TTITLE14=Sophisticated Lady
TTITLE15=Baby, Won't You Please Come Home
TTITLE16=Fallin' in Love with Love
TTITLE17=All or Nothing at All
TTITLE18=I Could Write a Book
TTITLE19=Perdido
TTITLE20=The Very Thought of You
TTITLE21=On Green Dolphin Street
TTITLE22=I Cried for You
TTITLE23=Lover Man
EXTD=YEAR: 1990
EXTT0=
EXTT1=
EXTT2=
EXTT3=
EXTT4=
EXTT5=
EXTT6=
EXTT7=
EXTT8=
EXTT9=
EXTT10=
EXTT11=
EXTT12=
EXTT13=
EXTT14=
EXTT15=
EXTT16=
EXTT17=
EXTT18=
EXTT19=
EXTT20=
EXTT21=
EXTT22=
EXTT23=
PLAYORDER=
